<mxfile host="app.diagrams.net" modified="2024-01-29T06:32:36.021Z" agent="Mozilla/5.0 (Windows NT 10.0; Win64; x64) AppleWebKit/537.36 (KHTML, like Gecko) Chrome/120.0.0.0 Safari/537.36" version="23.0.2" etag="WXiFV56L5-bSM5gkL9HY" type="github">
  <diagram name="Page-1" id="BQ74BI83l0-rGFP8X1Rh">
    <mxGraphModel>
      <root>
        <mxCell id="0" />
        <mxCell id="1" parent="0" />
      </root>
    </mxGraphModel>
  </diagram>
</mxfile>
